<?xml version="1.0" encoding="utf-8"?>
<!-- Generator: Adobe Illustrator 26.5.0, SVG Export Plug-In . SVG Version: 6.00 Build 0)  -->
<svg version="1.1" id="圖層_1" xmlns="http://www.w3.org/2000/svg" xmlns:xlink="http://www.w3.org/1999/xlink" x="0px" y="0px"
	 viewBox="0 0 111.3 108.5" style="enable-background:new 0 0 111.3 108.5;" xml:space="preserve">
<style type="text/css">
	.st0{fill:#D1AE78;}
	.st1{fill:#535353;}
</style>
<g>
	<rect x="13" y="45.7" class="st0" width="46.4" height="29.1"/>
	<path class="st1" d="M75.7,49.7c-5.1,0-9.8-2.9-12.1-7.4c-1-1.9-1.4-3.9-1.4-6.1c0-7.4,6.1-13.5,13.5-13.5
		c7.5,0,13.5,6.1,13.5,13.5c0,2.1-0.5,4.2-1.4,6.1C85.5,46.9,80.9,49.7,75.7,49.7 M75.7,26.8c-5.2,0-9.4,4.2-9.4,9.4
		c0,1.5,0.3,2.9,1,4.2c1.6,3.2,4.8,5.2,8.4,5.2s6.8-2,8.4-5.2c0.7-1.3,1-2.7,1-4.2C85.1,31.1,80.9,26.8,75.7,26.8"/>
	<path class="st1" d="M99.2,85.8c-1.1,0-2.1-0.9-2.1-2.1c0-18.1-3.9-21-8.4-24.4l-0.5-0.4c-3.7-2.8-14.1-4.4-21-2.2
		c-1.1,0.3-2.2-0.3-2.6-1.4c-0.3-1.1,0.3-2.2,1.4-2.6c7.6-2.4,19.6-1,24.7,2.9l0.5,0.4c5.2,3.9,10.1,7.6,10.1,27.7
		C101.3,84.8,100.4,85.8,99.2,85.8"/>
	<path class="st1" d="M80.2,81.7H41.3v-3.4h17.2c2.1,0,3.9-1.7,3.9-3.8V46.1c0-2.1-1.7-3.8-3.9-3.8H13.8c-2.1,0-3.8,1.7-3.8,3.8
		v28.2c0,2.1,1.7,3.8,3.8,3.8H31v3.4h-7.8c-1.1,0-2.1,0.9-2.1,2.1c0,1.1,0.9,2.1,2.1,2.1h57c1.1,0,2.1-0.9,2.1-2.1
		C82.3,82.6,81.3,81.7,80.2,81.7 M37.2,81.7h-2.1v-3.4h2.1V81.7z M14.1,46.4h44.1v27.7H14.1V46.4z"/>
	<path class="st1" d="M87.2,85.8c-1.1,0-2.1-0.9-2.1-2.1V71.4c0-1.1,0.9-2.1,2.1-2.1s2.1,0.9,2.1,2.1v12.3
		C89.3,84.8,88.3,85.8,87.2,85.8"/>
	<path class="st1" d="M35.4,66.6c-0.3,0-0.6-0.1-0.9-0.3L29.7,62c-0.5-0.5-0.6-1.3-0.1-1.9c0.5-0.5,1.3-0.6,1.9-0.1l3.8,3.4l7.6-8.9
		c0.5-0.6,1.3-0.6,1.9-0.2c0.6,0.5,0.6,1.3,0.2,1.9l-8.4,10C36.2,66.4,35.8,66.5,35.4,66.6C35.5,66.6,35.4,66.6,35.4,66.6"/>
</g>
</svg>
