<?xml version="1.0" encoding="utf-8"?>
<!-- Generator: Adobe Illustrator 26.5.0, SVG Export Plug-In . SVG Version: 6.00 Build 0)  -->
<svg version="1.1" id="圖層_1" xmlns="http://www.w3.org/2000/svg" xmlns:xlink="http://www.w3.org/1999/xlink" x="0px" y="0px"
	 viewBox="0 0 365.5 183.9" style="enable-background:new 0 0 365.5 183.9;" xml:space="preserve">
<style type="text/css">
	.st0{fill:#303131;}
</style>
<g>
	<path class="st0" d="M12.2,76c0,9.2-0.7,21.5-11.6,29.2L0,104.8C5.3,96.4,5.6,85.7,5.6,76V59.4l7.7,2.8h11.4V50.7l8.9,0.7
		c-0.1,0.8-0.5,1.4-2.1,1.7v3.3h8.9l3.6-4.5c0,0,4.1,3,6.6,5.2C50.5,57.7,49.9,58,49,58H31.5v4.1h14.4l3.4-3.4l5.9,5.7
		c-0.5,0.4-1.1,0.6-2.3,0.6c-2,1.7-5.5,4-8,5.2l-0.6-0.4c0.6-1.6,1.3-4.1,1.8-6.1H12.2V76z M48.5,97.6c0,0,4.1,3,6.6,5.1
		c-0.2,0.6-0.8,0.9-1.6,0.9H7.4L6.9,102h15.6v-6.3h-2.9l-1.9,2.9L12,95c0.4-0.5,1.1-1.1,1.8-1.5V83.2l7.7,0.8
		c-0.2,0.8-0.7,1.4-2.2,1.6V94h3.3V80.5l7.9,0.7c-0.1,0.8-0.5,1.3-1.9,1.5V102h3.9V80.5l7.9,0.7c0,0.8-0.5,1.3-1.8,1.5v11.2h3.7
		V83.3L50,84c-0.1,0.8-0.6,1.4-2.2,1.6v11.1c0,0.5-2.5,1.3-4.6,1.3h-1v-2.3h-3.7v6.4h6.4L48.5,97.6z M30.8,79c-6.1,0-7.3-1-7.3-4.9
		v-2.3l-9.8,0.9L13.2,71l10.3-0.9v-5.8l8.1,0.6c-0.1,0.8-0.6,1.3-1.8,1.5v3.1L35,69l2.7-3.8c0,0,3.4,2.2,5.6,3.9
		c-0.1,0.6-0.6,1.1-1.4,1.1l-12,1.1v2.1c0,0.7,0.2,0.9,2.2,0.9h6.3c2.1,0,4.4,0,5.3-0.1c0.6-0.1,1.5-0.1,1.9-0.2
		c0.5-0.1,1.3-0.2,1.8-0.4h0.5l0.3,0.1c1.9,0.7,2.6,1.2,2.6,2.3c0,2.6-2.5,3-13.1,3L30.8,79L30.8,79z"/>
	<path class="st0" d="M72.5,97.6c0,4.6-0.8,7.2-7.4,7.8c-0.1-2.1-0.3-3.7-0.9-4.8c-0.7-1.1-1.7-1.7-3.7-2.2v-0.8
		c0,0,3.9,0.3,4.8,0.3c0.8,0,1.1-0.3,1.1-0.9V83c-0.9,0.6-1.8,1.3-2.7,1.9c-0.2,0.8-0.7,1.5-1.4,1.6l-2.4-7.4
		c1.3-0.4,3.6-1.1,6.5-1.9V66.1h-5.8l-0.5-1.7h6.3V50.7l8.2,0.8c-0.1,0.8-0.7,1.4-2.1,1.6v11.2H73l2.5-4.1c0,0,1.2,1.3,2.5,2.7V51.4
		l7,0.6c-0.1,0.8-0.6,1.3-1.7,1.5v5.4h4.5l2.5-3.4c0,0,2.9,2.4,4.6,4.1c-0.2,0.6-0.8,0.9-1.5,0.9H83.3v4c0,0.6,0.2,0.9,1.3,0.9h2.8
		c1,0,2.1,0,2.5-0.1c0.4,0,0.9-0.1,1.2-0.1c0.4-0.1,0.9-0.2,1.3-0.2H93l0.2,0.1c1.5,0.6,2,1.1,2,2.1c0,2.2-2,3.1-8.5,3.1H83
		c-4.2,0-4.9-1.1-5-4.2h-5.5v9.2c1.6-0.6,3.3-1.2,5-1.8l0.2,0.6c-1.3,1.2-3.2,2.6-5.2,4.3V97.6z M106.8,98.4c1.4,0.4,3,0.5,4.7,0.5
		h4.7v0.7c-1.5,0.3-2.2,2.5-2.2,5.1h-3c-6.7,0-11.1-2.6-13.4-10.8c-1.5,4.4-4.2,8.6-9.4,12l-0.8-0.8c4.4-4.9,6-10.6,6.5-16.4
		c-0.2,0.1-0.4,0.1-0.6,0.1h-6.6c-0.1,0.6-0.2,1.2-0.5,1.8c9.1,4.5,4.1,11.2,0.6,7.6c0-1.8-0.5-3.8-1.1-5.6
		c-1.8,5.4-5.4,9.9-12.9,13.3l-0.7-0.9c6.4-4.5,8.6-9.8,9.4-16.2h-6l-0.5-1.7h6.7c0.2-2.5,0.2-5.1,0.3-7.9c-1.6,2.8-3.5,5-5.6,6.8
		l-0.8-0.4c1.5-3.8,2.8-9.3,3.3-14.7l7.5,2.1c-0.2,0.8-0.9,1.3-2.2,1.3c-0.4,1.1-0.8,2.1-1.3,3h4.3l2.5-3.4c0,0,2.8,2.4,4.6,4.1
		c-0.2,0.6-0.8,0.9-1.5,0.9h-5.4c-0.1,3-0.2,5.7-0.6,8.3h1.6l2.2-3.3c0,0,1.8,1.7,3.3,3.3c0.2-2.8,0.2-5.5,0.2-8.2l7,0.6
		c-0.1,0.7-0.6,1.3-1.8,1.5c-0.2,3.4-0.4,7.1-1.2,10.6c0.8,1.8,1.9,3.2,3,4.3V74.1h-8.1l-0.5-1.7h16.2l2.6-2.7l4.7,4.6
		c-0.4,0.4-1.1,0.5-2.2,0.6c-1.3,1.7-3.4,4.1-5.3,5.5L108,80c0.5-1.5,0.9-4,1.3-5.9h-2.5v10.2h0.9l2.7-3.9c0,0,3.1,2.7,5,4.6
		c-0.2,0.6-0.8,0.9-1.6,0.9h-7L106.8,98.4L106.8,98.4z M94.7,57.2l-0.5-1.7h12.6l3.2-3.2l5.5,5.3c-0.4,0.5-1.1,0.6-2.3,0.7
		c-1.6,1.9-4.3,4.3-6.9,6.3c4.5,3.9,1.6,8.7-2.4,6.6c-1.3-3.3-4.7-7.4-7.5-9.9l0.6-0.4c3.3,0.5,5.7,1.5,7.4,2.5
		c0.9-1.9,1.9-4.1,2.6-6L94.7,57.2L94.7,57.2z"/>
	<path class="st0" d="M171.3,65.9c0,0.1-0.3,0.4-0.8,0.5c1,0.8,3.7,2.9,5.4,4.4c-0.2,0.6-0.8,0.9-1.6,0.9h-36
		c0.8,0.8,1.6,1.7,2.2,2.5c-0.2,0.6-0.7,0.9-1.5,0.9h-6.3v14.6c2.5-0.8,5-1.6,7.5-2.4l0.2,0.6c-3.2,2.6-8.2,6.6-15.6,11.5
		c-0.1,0.8-0.7,1.4-1.3,1.6l-3.8-7.5c1.5-0.4,3.7-1,6.6-1.8V75.2H121l-0.5-1.6h5.8V58.5h-5.8l-0.5-1.7h11.4l3.4-4.6
		c0,0,3.5,2.9,5.8,5.1v-5.6l6.2,2.5h18.1l2.8-3l6,4.5c-0.4,0.5-1.3,1-2.5,1.2L171.3,65.9L171.3,65.9z M137.2,70.1h29.7l2.6-3.3
		c-0.9,0.4-2.1,0.6-3,0.6h-1v-1h-19v0.8c0,0.5-2.6,1.8-5,1.8h-0.8V58c-0.3,0.3-0.8,0.5-1.4,0.5h-6.4v15.1h0.6l2.6-4.3
		c0,0,0.6,0.6,1.5,1.5L137.2,70.1z M173.7,90.2c-0.4,0.6-0.9,0.6-2.1,0.4c-1.9,1.1-4.5,2.2-7,3.2c3.2,2.3,7,3.9,10.9,4.7l-0.1,0.6
		c-2.3,0.6-4,2.5-4.7,5.6c-7.4-3.5-11.8-9.2-14.3-18.1c-1.3,1.4-2.8,2.7-4.4,3.9v7.1c2.2-0.6,4.6-1.4,6.9-2.2l0.2,0.7
		c-2.1,1.6-6.4,5-11.3,8.3c-0.5,0.8-1.1,1.2-1.6,1.5l-2.9-5.9c2.5-1.2,2.9-1.6,2.9-2.6V94c-3.4,1.8-7.3,3.2-11.3,4.4l-0.4-0.8
		c6.1-3,11.3-7.5,14.7-12.1H148v0.6c0,0.5-2.7,1.8-5.1,1.8h-0.8V72.8l6.3,2.6h14.5l2.9-3.2l6.3,4.7c-0.4,0.5-1.2,0.9-2.4,1.2v6.8
		c-0.1,0.3-0.8,0.8-1.9,1.2L173.7,90.2z M146.5,55.9v8.9h3.4v-8.9H146.5z M148,83.9h15.4V77H148V83.9z M157.7,64.8v-8.9h-3.2v8.9
		H157.7z M157.4,85.6c1.3,2.5,3.2,4.7,5.3,6.6c1.6-1.8,3.2-4,4.6-6c-0.9,0.3-1.9,0.5-2.8,0.5h-1.1v-1.2L157.4,85.6L157.4,85.6z
		 M162.3,55.9v8.9h3.2v-8.9H162.3z"/>
	<path class="st0" d="M200,84.1c-3,2.8-7.7,6.6-14.5,11.5c-0.2,0.8-0.8,1.4-1.4,1.7l-4.2-7.5c1.3-0.4,3.6-1,6.2-1.8V67.6h-5.6
		l-0.5-1.7h6.1V51.6l8.7,0.8c-0.1,0.8-0.5,1.4-2.2,1.6v11.9h0.6l2.8-4.6c0,0,3.1,3.2,4.8,5.4c-0.2,0.6-0.8,0.9-1.5,0.9h-6.6v18.3
		c2.3-0.7,4.7-1.5,7.2-2.3L200,84.1z M233.2,97.9c1.5,0.6,1.8,1.3,1.8,2.5c0,2.3-2,3.4-9,3.4h-3.9c-4.9,0-5.5-1.2-5.5-5V87.9h-2.2
		c-1,7.1-4.3,13.5-22,17.6l-0.6-0.8c12.5-4.7,14.7-9.9,15.3-15.5c-0.7,0.7-3.2,1.7-5.5,1.7h-0.9V71.4l6.9,2.8h15.4l2.9-3.1l6.1,4.6
		c-0.4,0.4-1.1,0.9-2.2,1.1v12c-0.1,0.4-3.2,1.5-5.2,1.5h-1v-2.3h-0.8v0.7v8.8c0,0.6,0.2,0.9,1.2,0.9h2.7h2.3c0.5-0.1,0.8-0.2,1-0.7
		c0.5-0.8,1.2-3.2,2.2-6.2h0.6L233.2,97.9z M197.3,68.6h20.2c0.8-2.8,1.8-6.6,2.3-9.2l8.2,2.9c-0.2,0.6-1,1.1-2.2,0.9
		c-1.7,1.4-4.1,3.6-6.4,5.4h6.4l3.3-4.3c0,0,3.7,2.9,6,5c-0.2,0.6-0.8,0.9-1.6,0.9h-35.7L197.3,68.6z M198.8,57.7h14.9
		c-0.4-0.2-0.6-0.4-0.9-0.6c-0.1-2.3-1.2-4.9-2.5-6.4l0.5-0.4c9.8,0.5,9.6,5.7,6.7,7.4h7.2l3.3-4.5c0,0,3.7,3.1,6,5.2
		c-0.2,0.6-0.8,0.9-1.6,0.9h-33.1L198.8,57.7z M204.1,59.9c14.1,1.5,7.8,11.8,2.4,7.4c-0.1-2.5-1.5-5.3-2.9-7.1L204.1,59.9z
		 M207.3,75.8v4.4h16.3v-4.4H207.3z M223.7,86.2v-4.4h-16.3v4.4H223.7z"/>
	<path class="st0" d="M285.8,54.2l-5.8,1l-15.2,45.4h-4.8L243.7,55l-5-0.5v-2.3h21.5v2.3l-6.8,0.7l12.1,35.9l10.9-35.6l-6.7-0.9
		v-2.3h16.1L285.8,54.2L285.8,54.2z"/>
	<path class="st0" d="M311.7,52.1c15.2,0,24.4,9,24.4,24.1c0,15.2-10,24.2-25.6,24.2h-19.8v-2.3l6.2-0.6c0.1-6.4,0.1-13.1,0.1-20.5
		v-2.1c0-6.7,0-13.3-0.1-19.8l-6.2-0.6v-2.3L311.7,52.1L311.7,52.1z M310.3,97.8c10.4,0,16.3-8,16.3-21.6c0-14-5.9-21.6-15.8-21.6
		h-4.4c-0.2,6.6-0.2,13.3-0.2,20.2V77c0,7.4,0,14.2,0.2,20.8L310.3,97.8L310.3,97.8z"/>
	<path class="st0" d="M359.4,55c-0.2,6.5-0.2,13-0.2,19.6v3.2c0,6.5,0,13.1,0.2,19.6l6.2,0.6v2.3h-21.7v-2.3l6.2-0.6
		c0.1-6.4,0.1-13,0.1-19.6v-3.2c0-6.5,0-13.1-0.1-19.6l-6.2-0.6v-2.3h21.7v2.3L359.4,55z"/>
	<path class="st0" d="M50.4,127.6c0,0,4.3,3.4,6.9,5.8c-0.1,0.7-0.8,1-1.6,1H44.6c-1.9,2.5-4.2,5-6.2,6.9h7.3l3.1-3.4l6.3,4.9
		c-0.3,0.4-1,0.8-2,1.1v26.6c-0.1,0.5-3.3,1.8-5.7,1.8h-1.1v-2.3H33.9v1c0,0.1-0.1,0.3-0.4,0.5l7.5,4.7c-0.3,0.5-0.9,0.6-1.9,0.4
		c-4.1,3.1-12.4,6.2-19.2,7.5l-0.4-0.8c5-2.7,10.8-7.6,13.6-11.4c-1,0.7-2.9,1.4-4.9,1.4h-1.1v-20.1c-0.3,0.1-0.7,0.1-1.2,0.1
		c-1.9,2.8-5.2,7-7.8,9.6l-0.6-0.4c0.6-2.8,1.3-7.3,1.7-10.5h-4v23.7c0,4.6-1,7.8-8.3,8.3c-0.1-2.1-0.4-3.7-1.1-4.7s-2-1.7-4.7-2.2
		v-0.8c0,0,5.2,0.3,6.3,0.3c0.9,0,1.1-0.4,1.1-1v-23.6H0.8l-0.5-1.7h18.5l3.5-3.5l4.9,4.7v-12.9l7.1,2.9h2.2
		c0.2-1.9,0.4-4.6,0.5-6.9H26.1l0.3,0.3c-0.4,0.5-1.1,0.6-2.4,0.7c-2.2,2-5.9,4.2-9.2,5.9c4.9,4.1,1.5,10-3.2,7.3
		c-1.1-3.8-4.7-8-8-10.4l0.5-0.4c3.8,0.3,6.7,1.1,8.8,2.3c1.3-1.9,2.6-4.1,3.6-6H1.8l-0.5-1.7h15.3l3.7-3.6l4.1,3.9h22.2L50.4,127.6
		z M33.9,142.9v7.2h12.2v-7.2H33.9z M33.9,159h12.2v-7.3H33.9V159z M46.1,168.1v-7.3H33.9v7.3H46.1z M41,171.6
		c19.2,1.4,16.2,14.7,9.3,11.6c-1.9-3.9-6.4-8.5-9.8-11.2L41,171.6z"/>
	<path class="st0" d="M62.3,159.3c0,0,1.6-0.4,2.3-0.8c3.1-2.1,7-6.2,10.2-10.6c-2.3,0.9-5,1.9-7.9,2.9c-0.5,0.8-1,1.3-1.6,1.5
		l-3.1-7.5c0,0,1.3-0.3,1.9-0.7c3.4-2.9,8.1-11.8,9.5-16.6l8.3,4.5c-0.2,0.5-0.9,1-2.1,0.8c-2.9,3.8-8,8.8-12.6,12.1
		c2.8,0,6.2-0.1,9.9-0.1c1.6-2.4,2.9-4.7,3.8-6.6l7.8,5.2c-0.3,0.5-1.1,0.9-2.3,0.7c-3.8,4.5-11.2,10.9-17.8,15.1
		c3.6-0.2,8.4-0.5,13.2-0.8c-0.7-2.2-1.7-4.2-2.6-5.8l0.7-0.3c13.9,5.7,8.1,15.7,3.1,11.3c-0.1-1.2-0.3-2.4-0.7-3.7
		c-3.8,1.5-9.2,3.7-15.3,5.8c-0.5,0.7-1.1,1.1-1.7,1.3L62.3,159.3z M68.4,167.2c2.4,6.4,1.9,11.2-0.1,13.6c-1.4,1.7-4.7,1.6-5.8-0.5
		c-0.9-2,0.1-3.8,1.7-5c1.6-1.4,3.5-5,3.3-8.1H68.4z M74.4,166.1c10.9,7.9,3.6,17.1-0.7,11.6c0.8-3.7,0.5-8.2-0.1-11.4L74.4,166.1z
		 M81.4,164.9c13.3,4.9,7.2,15.2,2.3,10.5c0.1-3.5-1.4-7.5-2.9-10.2L81.4,164.9z M118.6,140.7c-0.5,0.5-1.4,1-2.8,1.1
		c-0.8,24.3-2.3,35.2-6.1,38.9c-2.2,2.2-4.8,3.1-8.5,3.1c0-2.2-0.3-3.8-1.1-4.7c-1-1.1-3.1-2-5.6-2.5v-0.8c2.5,0.2,6.3,0.5,7.8,0.5
		c1.1,0,1.7-0.2,2.3-0.8c2.5-2.2,3.8-13.9,4.6-34.7H96.8c-2.6,5.7-6,10.6-9.9,14.3l-0.8-0.4c3.1-7,6-17.7,7.3-27.5l9.6,2.4
		c-0.2,0.7-1,1.3-2.3,1.3c-1,2.8-2,5.6-3.2,8.2h11.1l3.7-3.8L118.6,140.7z M95,149.4c16.3,7.3,9.9,20,3.8,14.4
		c-0.1-4.7-2.3-10.2-4.4-14.2L95,149.4z"/>
	<path class="st0" d="M129,166.6c2.3,6.2,2,10.9,0.2,13.3c-1.3,1.6-4.4,1.7-5.5-0.4c-0.9-1.8,0-3.6,1.6-4.7c1.4-1.5,3.2-5.2,2.8-8.2
		H129z M141.1,131.5c-0.2,0.6-0.9,1-2,0.9c-2.5,3.8-6.9,8.9-10.8,12.3c2.3,0.1,5.1,0.1,8.1,0c1.2-2.2,2.2-4.1,2.8-5.8l7,4.8
		c-0.3,0.5-1.1,0.9-2.3,0.7c-3.2,4.3-9.3,10.4-14.8,14.4c2.8-0.1,6.4-0.4,10.2-0.7c-0.5-2-1.1-3.8-1.8-5.4l0.7-0.3
		c11.4,6.1,5.8,14.8,1.6,10.5c0.1-0.9-0.1-1.9-0.2-2.9c-3.1,1.3-7.2,2.9-11.7,4.6c-0.5,0.6-1,1-1.6,1.2l-2.3-7.1c0,0,1.4-0.2,2-0.7
		c2.6-2,5.9-6.2,8.5-10.4c-1.8,0.7-3.8,1.6-6.1,2.4c-0.4,0.7-1,1.2-1.6,1.4l-2.9-7c0,0,1.2-0.4,1.7-0.7c2.8-3,6.3-11.6,7.3-16.2
		L141.1,131.5z M133.1,165.8c9.4,7.7,3.2,16-0.5,11.4c0.7-3.7,0.4-8.1-0.3-11.2L133.1,165.8z M138,164.9c11.9,5.1,6.7,14.4,2.3,10.2
		c0.1-3.3-1.4-7.3-2.9-9.9L138,164.9z M180.8,133.1c-0.4,0.5-1.3,1-2.5,1.2v41.3c0,4.2-0.9,6.6-7.8,7.2c-0.1-1.8-0.4-3.2-1.3-4.1
		c-0.9-0.8-2.1-1.5-4.9-2v-0.8c0,0,5.7,0.4,6.9,0.4c1,0,1.3-0.4,1.3-1.3v-26.9c-0.2,0.1-0.5,0.2-0.9,0.2h-19l-0.4-1.7h10.5
		c1-3.4,1.9-8.2,2.5-11.6l7,1.9c-0.3,0.7-1,1.3-2.3,1.1c-1.4,2.5-3.6,5.8-5.8,8.5h2.3l2.4-3.3c0,0,2.1,1.8,3.8,3.4v-13.3h-20.9v48.2
		c0,0.4-1.7,1.8-4.6,1.8h-1v-54.2l6.3,2.5H172l2.7-3.2L180.8,133.1z M169.3,168.4c1.3,0.5,1.8,1,1.8,1.9c0,1.9-1.6,2.6-7.7,2.6H160
		c-4,0-4.5-1.1-4.5-4.1v-10.6h-2.3l-0.5-1.7h12.7l2.3-3.1c0,0,2.6,2.2,4.3,3.9c-0.1,0.7-0.7,1-1.5,1h-10.1v0.8v8.8
		c0,0.7,0.2,0.8,1.2,0.8h2.5h2.3c0.3,0,0.8-0.1,1-0.1c0.4-0.1,0.8-0.1,1.2-0.2h0.5L169.3,168.4z M154,135.4
		c11.5,4.9,6.2,13.3,2.2,9.4c-0.1-3.1-1.5-6.7-2.9-9.1L154,135.4z M158.2,148.5c11.2,2.9,5,10.6,1,6.6c0.1-2.2-0.7-4.7-1.6-6.4
		L158.2,148.5z"/>
	<path class="st0" d="M210.1,147.7c-0.2,0.7-0.9,1.3-2.3,1.3c-1.7,5.6-4.6,13.9-7.8,21.1c3-0.7,6.1-1.4,9.3-2.1l0.1,0.7
		c-4.2,2.5-10.5,6.2-19.7,10.6c-0.2,0.8-0.8,1.4-1.6,1.6l-3.5-7.8c2.6-0.4,7.5-1.4,13.3-2.6c1.3-8.1,2.5-18.1,3.2-25.3L210.1,147.7z
		 M185.3,143.4l-0.5-1.7h17.8l3.4-5.4c0,0,4,3.7,6.1,6.1c-0.2,0.7-0.8,1-1.6,1H185.3z M188.2,146.1c15.1,14.5,5.5,26.9,1.7,20.2
		c0.2-4.9,0.1-13.6-2.5-19.9L188.2,146.1z M191.7,127.5c16,5.2,9,17.1,3,11.6c-0.2-3.8-2-8.2-3.5-11.4L191.7,127.5z M234.9,137.5
		c0,0,4.1,3.3,6.5,5.6c-0.1,0.7-0.8,1-1.6,1h-12.9v12.1h2.9l3.4-3.8l6.4,4.9c-0.4,0.5-1,0.9-2.3,1.2v23.1c0,0.4-2.3,1.6-5.9,1.6
		h-1.2v-4.5h-13.2v3.4c0,0.5-2.1,1.7-5.6,1.7h-1.2v-30.4l7.5,2.8h2.5v-28.7l9,0.8c-0.1,0.8-0.5,1.4-2.2,1.7v12.5h4.5L234.9,137.5z
		 M216.8,157.9v19H230v-19H216.8z"/>
	<path class="st0" d="M256.4,148.4v32.8c0,0.9-2.5,2.6-5.5,2.6h-1.1V129l7,3h7.9l2.9-3.2l6.2,4.7c-0.4,0.4-1.1,0.9-2.2,1.1v14.6
		c-0.1,0.5-3.1,1.9-5.2,1.9h-1.1v-2.8L256.4,148.4L256.4,148.4z M256.4,133.8v5.5h8.8v-5.5H256.4z M265.1,146.7V141h-8.8v5.7H265.1z
		 M282.8,166.6v12.9c-0.1,0.3-1.8,1.4-4.8,1.4H277v-14.2h-5.5c-0.7,5.3-3,11.1-11.8,14.8l-0.6-0.7c5-4.1,6.4-9.2,6.7-14.2h-7
		l-0.5-1.7h7.6c0-0.6,0-1.3,0-1.9v-6.8h-5.8l-0.5-1.7h21.7l3.1-4.1c0,0,3.6,2.8,5.7,4.9c-0.1,0.6-0.7,0.9-1.6,0.9h-5.8v8.6h0.2
		l3-4.1c0,0,3.4,2.8,5.3,4.9c-0.2,0.7-0.8,1-1.6,1L282.8,166.6L282.8,166.6z M277,164.8v-8.6h-5.3v6.8c0,0.6,0,1.2-0.1,1.9H277z
		 M302.1,133.6c-0.4,0.5-1.3,1-2.5,1.2v40.9c0,4.7-1,7.4-8.2,8c-0.2-2.2-0.4-3.9-1.1-4.9c-0.8-1.1-1.8-1.8-4.2-2.3v-0.8
		c0,0,4.5,0.2,5.6,0.2c0.9,0,1.1-0.4,1.1-1.1v-26.6h-9.1v0.4c0,0.6-2.8,2-5.5,2h-1v-21.4l6.7,2.7h8.3l3.1-3.7L302.1,133.6z
		 M283.7,133.8v5.5h9.1v-5.5H283.7z M292.9,146.7V141h-9.1v5.7H292.9z"/>
	<path class="st0" d="M335.9,151.8c-0.4,0.5-1.1,0.9-2.5,1.1c-0.5,18.7-1.6,25.4-4.6,28.2c-1.9,1.7-4.3,2.4-7.1,2.4
		c0-2-0.1-3.6-0.8-4.5c-0.7-1-2-1.7-4-2.1v-0.8c1.7,0.1,4.3,0.3,5.4,0.3c0.9,0,1.4-0.2,1.9-0.7c1.6-1.5,2.5-8.5,2.9-23.8h-5.8
		c-1,12.2-3.8,23.7-12.9,31.9l-0.5-0.5c6.9-12.1,7.4-27.1,7-41.6h-6.1l-0.5-1.7H328l3.6-4.7c0,0,4,3.2,6.4,5.5c-0.2,0.7-0.8,1-1.6,1
		h-14.8c-0.1,2.9-0.2,5.6-0.4,8.5h5.1l3.5-3.5L335.9,151.8z M316.5,127.8c16.2,3.3,10.1,15.2,4,10.4c-0.5-3.5-2.6-7.5-4.6-10.1
		L316.5,127.8z M360.5,143.1c-1.2,9.2-3.7,17.5-8.5,24.6c3.4,4.1,7.7,7.3,13,9.8l-0.2,0.6c-3.4,0.7-5.4,2.6-6.2,5.9
		c-4.4-3.1-7.8-7-10.3-11.7c-4.4,4.7-10.3,8.7-18.1,11.6l-0.4-0.6c7.4-4.6,12.5-10.1,16.1-16.4c-2-5.3-3.3-11.3-4.1-17.9
		c-2,3.4-4.3,6.3-6.9,8.8l-0.8-0.4c3.5-7.7,6.2-19,7.1-29.8l10,2c-0.2,0.8-0.9,1.4-2.3,1.4c-1,3.7-2,7.2-3.4,10.4h9.1l3.6-5
		c0,0,4.3,3.4,6.7,5.8c-0.1,0.7-0.7,1-1.6,1L360.5,143.1L360.5,143.1z M344.8,143.1c-0.7,1.4-1.3,2.9-2,4.1c1.2,5.6,3,10.7,5.5,15
		c2.6-5.9,4-12.4,4.5-19.2L344.8,143.1L344.8,143.1z"/>
</g>
<g>
	<path class="st0" d="M35.4,3.1c-0.2,0.3-0.6,0.5-1.2,0.4c-1.1,1-2.3,2-3.4,2.7c3.4,1.1,3.4,3.6,2.1,4.2l2.4,2.3
		c-0.2,0.2-0.5,0.3-1.1,0.4c-1,0.9-2.6,2-3.9,2.7l2.6,2.1c-0.2,0.3-0.6,0.4-1.2,0.5c-0.6,4.4-1.6,7.4-3.2,8.5c-1,0.7-2.2,1-4,1
		c0-0.9-0.1-1.8-0.6-2.2c-0.5-0.5-1.7-1-3.1-1.2l0-0.4c1.4,0.1,3.7,0.3,4.4,0.3c0.5,0,0.8-0.1,1.1-0.3c0.8-0.5,1.5-2.9,1.9-6.2h-6
		c-1.3,4.7-4.7,8.3-13.7,10.1l-0.2-0.4c6.6-2.3,9.2-5.8,10.1-9.7H12l-0.3-0.9h6.9c0.2-1.3,0.3-2.6,0.2-4l5,0.5
		c-0.1,0.5-0.4,0.8-1.2,0.8c-0.1,0.9-0.2,1.8-0.4,2.7H28l1.7-1.7l0.1,0.1c0.3-0.9,0.5-2.1,0.7-3.1H13.6c0,2.1-0.9,3.5-2,4.2
		c-1,0.6-2.5,0.3-3-0.9c-0.3-1.1,0.4-1.9,1.3-2.4c1.1-0.5,2.6-1.8,2.8-3.4c-1,0.5-2.1,1-3.5,1.4L9,10.9c5.7-2.7,5.6-6.3,5.6-10.9
		l3.9,0.3c-0.1,0.4-0.3,0.7-1,0.8c-0.1,1.7-0.2,3.2-0.7,4.7c0.2,0,0.5,0.1,0.7,0.1c0.5-1.2,1.3-2.9,1.9-4.4l3.3,1.4
		c-0.2,0.3-0.5,0.5-1.2,0.5c-1,1-2.1,2-3.2,2.8c4.7,1.5,2.8,5.6,0.3,4c-0.3-1.2-1.2-2.6-2.2-3.6c-0.7,1.3-1.7,2.4-3.6,3.4l0.3,0
		c0.2,0.6,0.3,1.2,0.4,1.8h16.8l1.1-1.2l-0.2-0.1c-0.4-1.2-1.6-2.5-2.7-3.5c-1.1,1.7-3.2,3.3-7.2,4.4l-0.3-0.4
		c5.6-2.8,5.5-6.3,5.6-10.8l4.2,0.3c0,0.4-0.3,0.7-1,0.8c-0.1,1.7-0.2,3.3-0.8,4.7c0.3,0,0.5,0.1,0.8,0.2c0.6-1.2,1.3-3,2-4.6
		L35.4,3.1z M9.6,1.9c6.3,1.6,3.6,5.9,1.3,4C10.8,4.6,10,3,9.3,2.1L9.6,1.9z M22.8,1.9c5.6,2.4,2.4,6.2,0.5,4.1
		c0.1-1.3-0.4-2.9-0.8-3.9L22.8,1.9z"/>
	<path class="st0" d="M43.2,5.8c0.4,2.1-0.2,3.7-1.1,4.4c-0.9,0.7-2.4,0.5-2.9-0.6c-0.4-1.1,0.2-2,1.1-2.5c0.9-0.6,1.9-2.3,1.7-3.9
		h0.4c0.3,0.6,0.5,1.2,0.6,1.8h9.4c-0.2-0.1-0.5-0.3-0.8-0.5c0.1-1.5-0.7-3.2-1.8-4.2L50.1,0c6.4,0.4,6.2,4,4.3,4.9h7.5l1.9-1.9
		L67,6.1c-0.2,0.2-0.5,0.3-1.2,0.4c-1.1,1.1-3,2.5-4.4,3.3l-0.2-0.2c0.3-1,0.7-2.6,0.9-3.8C62.1,5.8,43.2,5.8,43.2,5.8z M63.2,11
		c0,0,2.2,1.6,3.5,2.8c-0.1,0.3-0.4,0.5-0.8,0.5h-6.1c-0.7,2.8-1.8,5.3-3.8,7.4c11.6,3.2,7.1,7.7,3.9,6c-1.6-1.2-3.8-2.5-6.6-3.8
		c-3,1.9-7.3,3.4-13.4,4.2l-0.2-0.4c5-1.3,8.5-3,11-5c-2.3-0.9-4.9-1.8-7.8-2.6c0.8-1.4,1.9-3.6,2.9-5.8h-6l-0.3-0.9h6.7
		c1.1-2.6,2.2-5.2,2.6-6.6l4.9,1.5c-0.1,0.3-0.4,0.6-1.3,0.6c-0.6,1.1-1.3,2.8-2.2,4.6h5.8c0.2-1.2,0.3-2.4,0.4-3.7l5.2,1
		c-0.1,0.5-0.5,0.7-1.2,0.7c-0.1,0.7-0.2,1.4-0.3,2h1.3L63.2,11z M49.6,14.3c-1,2-2.1,4-3.1,5.7c2.3,0.3,4.3,0.6,6,0.9
		c1.7-2,2.6-4.2,3.2-6.6H49.6z"/>
	<path class="st0" d="M97.4,7.4c-0.2,0.2-0.6,0.5-1.2,0.7v9.9c0,0.2-1.9,0.9-3.1,0.9h-0.6v-2.5h-6.8v10.5c0,0.4-1.6,1.3-3.1,1.3
		h-0.7V16.3h-6.7v1.8c0,0.4-1.6,1.2-3.2,1.2h-0.5V5l4,1.6H82V0l4.9,0.4c-0.1,0.4-0.3,0.8-1.1,0.9v5.2h6.5l1.7-1.9L97.4,7.4z
		 M81.9,15.5v-8h-6.7v8H81.9z M92.4,15.5v-8h-6.8v8H92.4z"/>
	<path class="st0" d="M104.8,9c2.2,5.5,1.4,9.2,0,11.2c-1,1.5-2.7,1.7-3.6,0.7c-0.7-0.9-0.5-1.9,0.3-2.8c1.5-1.4,3-5.1,3-9.2
		L104.8,9z M112.8,5.9c0,0.4-0.3,0.7-1.1,0.8v15.5c0,0.8,0.4,1,1.7,1h3.7c1.4,0,2.5,0,3-0.1c0.5-0.1,0.8-0.2,1-0.5
		c0.4-0.6,1-2.4,1.6-4.7h0.3l0.1,4.9c1.1,0.4,1.4,0.8,1.4,1.5c0,1.7-1.5,2.4-7.8,2.4h-3.8c-3.6,0-4.7-0.6-4.7-3.5V5.4L112.8,5.9z
		 M116.8,8.8c-0.6-2.8-2.4-6-4.2-8.2l0.3-0.2C123.3,3.9,120.5,11.6,116.8,8.8z M125.4,20.7c-0.2-2.9-1-7.5-3.4-10.8l0.3-0.2
		C133.2,16.2,128.2,24.4,125.4,20.7z"/>
</g>
</svg>
