<?xml version="1.0" encoding="utf-8"?>
<!-- Generator: Adobe Illustrator 26.5.0, SVG Export Plug-In . SVG Version: 6.00 Build 0)  -->
<svg version="1.1" id="圖層_1" xmlns="http://www.w3.org/2000/svg" xmlns:xlink="http://www.w3.org/1999/xlink" x="0px" y="0px"
	 viewBox="0 0 111.3 108.5" style="enable-background:new 0 0 111.3 108.5;" xml:space="preserve">
<style type="text/css">
	.st0{fill:#FF5001;}
	.st1{fill:#FFFFFF;}
</style>
<g>
	<rect x="42.2" y="52.4" class="st0" width="6.8" height="6.8"/>
	<rect x="21.6" y="72.6" class="st0" width="6.8" height="6.8"/>
	<rect x="62.8" y="72.4" class="st0" width="6.8" height="6.8"/>
	<path class="st1" d="M28.7,62.4h-7.3c-1.6,0-2.9-1.3-2.9-2.9v-7.3c0-1.6,1.3-2.9,2.9-2.9h7.3c1.6,0,2.9,1.3,2.9,2.9v7.3
		C31.6,61.1,30.3,62.4,28.7,62.4 M22.5,58.4h5.1v-5.1h-5.1V58.4z"/>
	<path class="st1" d="M49.3,62.4h-7.3c-1.6,0-2.9-1.3-2.9-2.9v-7.3c0-1.6,1.3-2.9,2.9-2.9h7.3c1.6,0,2.9,1.3,2.9,2.9v7.3
		C52.2,61.1,50.9,62.4,49.3,62.4 M43,58.4h5.1v-5.1H43V58.4z"/>
	<path class="st1" d="M28.7,82.4h-7.3c-1.6,0-2.9-1.3-2.9-2.9v-7.3c0-1.6,1.3-2.9,2.9-2.9h7.3c1.6,0,2.9,1.3,2.9,2.9v7.3
		C31.6,81.1,30.3,82.4,28.7,82.4 M22.5,78.4h5.1v-5.1h-5.1V78.4z"/>
	<path class="st1" d="M49.3,82.4h-7.3c-1.6,0-2.9-1.3-2.9-2.9v-7.3c0-1.6,1.3-2.9,2.9-2.9h7.3c1.6,0,2.9,1.3,2.9,2.9v7.3
		C52.2,81.1,50.9,82.4,49.3,82.4 M43,78.4h5.1v-5.1H43V78.4z"/>
	<path class="st1" d="M64.2,63c-0.5,0-1-0.2-1.3-0.5l-5.6-4.9c-0.8-0.7-0.9-2-0.2-2.8c0.7-0.8,2-0.9,2.8-0.2l4.1,3.6l8.4-9.9
		c0.7-0.8,2-1,2.8-0.2c0.8,0.7,0.9,2,0.2,2.8l-9.7,11.5c-0.3,0.4-0.8,0.7-1.4,0.7C64.3,63,64.2,63,64.2,63"/>
	<path class="st1" d="M89.9,62.4h-7.3c-1.6,0-2.9-1.3-2.9-2.9v-7.3c0-1.6,1.3-2.9,2.9-2.9h7.3c1.6,0,2.9,1.3,2.9,2.9v7.3
		C92.8,61.1,91.5,62.4,89.9,62.4 M83.6,58.4h5.1v-5.1h-5.1V58.4z"/>
	<path class="st1" d="M69.3,82.4H62c-1.6,0-2.9-1.3-2.9-2.9v-7.3c0-1.6,1.3-2.9,2.9-2.9h7.3c1.6,0,2.9,1.3,2.9,2.9v7.3
		C72.2,81.1,70.9,82.4,69.3,82.4 M63.1,78.4h5.1v-5.1h-5.1V78.4z"/>
	<path class="st1" d="M55.7,32.7c1.1,0,2-0.9,2-2v-6.8h13.5c1.1,0,2-0.9,2-2c0-1.1-0.9-2-2-2H57.7v-5.7c0-1.1-0.9-2-2-2s-2,0.9-2,2
		v16.5C53.7,31.8,54.5,32.7,55.7,32.7"/>
	<path class="st1" d="M31.8,22v8.7c0,1.1,0.9,2,2,2c1.1,0,2-0.9,2-2v-6.8h13.5c1.1,0,2-0.9,2-2c0-1.1-0.9-2-2-2H35.8v-5.7
		c0-1.1-0.9-2-2-2c-1.1,0-2,0.9-2,2v7.7C31.8,21.9,31.8,21.9,31.8,22C31.8,21.9,31.8,21.9,31.8,22"/>
	<path class="st1" d="M109.5,73.4c0.1-0.2,0.1-0.3,0.1-0.5c0,0,0-0.1,0-0.1c0-0.1,0-0.1,0-0.2V39c0,0,0,0,0,0V27v-0.3
		c0-2.4-1.6-4.6-4.3-5.8c0,0-0.1,0-0.1-0.1c0,0,0,0,0,0c0,0,0,0,0,0c0,0,0,0,0,0c-1.3-0.6-2.7-0.9-4.3-0.9H79.5v-5.7
		c0-1.1-0.9-2-2-2c-1.1,0-2,0.9-2,2v16.5c0,1.1,0.9,2,2,2c1.1,0,2-0.9,2-2v-6.8h21.3c1,0,1.9,0.2,2.7,0.6c1.3,0.6,2.1,1.5,2.1,2.5
		v10H5.6V27c0-1,0.8-2,2.1-2.6c0.8-0.4,1.7-0.6,2.6-0.6h17.4c1.1,0,2-0.9,2-2c0-1.1-0.9-2-2-2H10.4c-1.5,0-3,0.3-4.3,0.9
		c-2.8,1.2-4.5,3.6-4.5,6.2v12c0,0,0,0,0,0v55.3c0,1.1,0.9,2,2,2h84.7c0.1,0,0.3,0,0.4,0c0,0,0.1,0,0.1,0c0.1,0,0.2-0.1,0.3-0.1
		c0.1,0,0.1-0.1,0.1-0.1c0.1,0,0.1-0.1,0.2-0.1c0.1,0,0.1-0.1,0.1-0.1c0.1,0,0.1-0.1,0.2-0.1c0,0,0,0,0,0l19.4-21.8c0,0,0,0,0,0
		C109.3,73.7,109.4,73.6,109.5,73.4C109.5,73.4,109.5,73.4,109.5,73.4 M87.4,92.3H5.6V41h100v29.6H88.3c-1.1,0-2,0.9-2,2v13.8
		c0,1.1,0.9,2,2,2c1.1,0,2-0.9,2-2V74.6h12.9L87.4,92.3z"/>
</g>
</svg>
