<?xml version="1.0" encoding="utf-8"?>
<!-- Generator: Adobe Illustrator 26.5.0, SVG Export Plug-In . SVG Version: 6.00 Build 0)  -->
<svg version="1.1" id="Layer_51" xmlns="http://www.w3.org/2000/svg" xmlns:xlink="http://www.w3.org/1999/xlink" x="0px" y="0px"
	 viewBox="0 0 38 46" style="enable-background:new 0 0 38 46;" xml:space="preserve">
<style type="text/css">
	.st0{fill:#FFFFFF;}
</style>
<path class="st0" d="M37.5,35.7L32,29.3V17c-0.1-6.4-4.7-11.7-11-12.8V2c0-1.1-0.9-2-2-2s-2,0.9-2,2v2.2C10.7,5.3,6.1,10.6,6,17
	v12.3l-5.5,6.4c-0.7,0.8-0.6,2.1,0.2,2.8C1.1,38.8,1.5,39,2,39h8.2c1,4.1,4.6,7,8.8,7c4.2,0,7.8-2.9,8.8-7H36c1.1,0,2-0.9,2-2
	C38,36.5,37.8,36.1,37.5,35.7z M19,42c-2-0.1-3.7-1.2-4.5-3h9.1C22.8,40.8,21,42,19,42z M6.3,35l3.2-3.7C9.8,30.9,10,30.5,10,30V17
	c0-5,4-9,9-9s9,4,9,9v13c0,0.5,0.2,0.9,0.5,1.3l3.2,3.7H6.3z"/>
</svg>
