<?xml version="1.0" encoding="utf-8"?>
<!-- Generator: Adobe Illustrator 26.5.0, SVG Export Plug-In . SVG Version: 6.00 Build 0)  -->
<svg version="1.1" id="圖層_1" xmlns="http://www.w3.org/2000/svg" xmlns:xlink="http://www.w3.org/1999/xlink" x="0px" y="0px"
	 viewBox="0 0 127 126.9" style="enable-background:new 0 0 127 126.9;" xml:space="preserve">
<g>
	<path d="M63.5,102c-1.8,0-3.6-0.8-4.8-2.1L13,49.3c-1.7-1.9-2.2-4.6-1.1-7c1-2.3,3.4-3.9,5.9-3.9h19.9V6.5c0-3.6,2.9-6.5,6.5-6.5
		h38.6c3.6,0,6.5,2.9,6.5,6.5v31.9h19.9c2.6,0,4.9,1.5,5.9,3.9c1,2.3,0.6,5.1-1.1,7L68.3,99.8C67.1,101.2,65.3,102,63.5,102z
		 M32.5,51.4l31,34.3l31-34.3H82.8c-3.6,0-6.5-2.9-6.5-6.5V13H50.7v31.9c0,3.6-2.9,6.5-6.5,6.5H32.5z"/>
</g>
<g>
	<path d="M120.5,126.9H6.5c-3.6,0-6.5-2.9-6.5-6.5V78c0-3.6,2.9-6.5,6.5-6.5h13.2c3.6,0,6.5,2.9,6.5,6.5s-2.9,6.5-6.5,6.5H13v29.4
		h101V78c0-3.6,2.9-6.5,6.5-6.5s6.5,2.9,6.5,6.5v42.4C127,124,124.1,126.9,120.5,126.9z"/>
</g>
</svg>
